# xmcd
#
# Track frame offsets:
#	150
#	15570
#	54137
#	75732
#	89192
#	104612
#	126182
#	143525
#	157662
#	173317
#	191025
#	210940
#	224870
#	237955
#
# Disc length: 3413
#
# Revision: 1
# Processed by: cddbd v1.5.1PL0 Copyright (c) Steve Scherf et al.
# Submitted via: ExactAudioCopy v0.95a5
# Normalized: r0:TDELIM( - ),TSWAP
#
DISCID=b50d530e
DTITLE=Various Artist - Country Rock At Its Best [CD2)
DYEAR=1992
DGENRE=Country
TTITLE0=billy ray cyrus - Achy Breaky Heart
TTITLE1=don mcclean - american pie
TTITLE2=allman brothers - ramblin' man
TTITLE3=glan campbell - southern nights
TTITLE4=juice newton - queen of hearts
TTITLE5=lynyrd skynyrd - sweet home alabama
TTITLE6=carly simon - mockingbird
TTITLE7=kenny rogers - daytime friends
TTITLE8=suzi quatro - two miles out of georgia
TTITLE9=backman turner overdrive - roll on down the highyway
TTITLE10=alannah myles - black velvet
TTITLE11=dr hook - walk right in
TTITLE12=little texas - some guys have all the love
TTITLE13=tanya tucker - lay back in the arms of someone
EXTD=
EXTT0=
EXTT1=
EXTT2=
EXTT3=
EXTT4=
EXTT5=
EXTT6=
EXTT7=
EXTT8=
EXTT9=
EXTT10=
EXTT11=
EXTT12=
EXTT13=
PLAYORDER=
